# xmcd
#
# Track frame offsets:
#	150
#	14962
#	34105
#	48332
#	65592
#	80690
#	103929
#	117487
#	134895
#	148160
#	169797
#	183390
#	202337
#	221734
#	239987
#
# Disc length: 3411 seconds
#
# Revision: 1
# Processed by: cddbd v1.4PL0 Copyright (c) Steve Scherf et al.
# Submitted via: dBpowerAMP V4.0
#
DISCID=030d510f
DTITLE=John Denver - The collection
DYEAR=1900
DGENRE=country
TTITLE0=Take me home contryroads
TTITLE1=Rocky Mountain High
TTITLE2=Annie's song
TTITLE3=Country girl in Paris
TTITLE4=For you
TTITLE5=Sunshine on my shoulder
TTITLE6=Eagle and the hawk
TTITLE7=Calypso
TTITLE8=The flower that shattered the stone
TTITLE9=Eagles and horses
TTITLE10=Whispering Jesse
TTITLE11=Islands
TTITLE12=To the wild country
TTITLE13=Windsong
TTITLE14=Higher ground
EXTD=
EXTT0=
EXTT1=
EXTT2=
EXTT3=
EXTT4=
EXTT5=
EXTT6=
EXTT7=
EXTT8=
EXTT9=
EXTT10=
EXTT11=
EXTT12=
EXTT13=
EXTT14=
PLAYORDER=
